<?xml version="1.0" encoding="UTF-8" standalone="no"?>
<!DOCTYPE svg PUBLIC "-//W3C//DTD SVG 1.1//EN"
 "http://www.w3.org/Graphics/SVG/1.1/DTD/svg11.dtd">
<!-- Generated by graphviz version 5.0.0 (20220707.1540)
 -->
<!-- Title: dependencies Pages: 1 -->
<svg width="952pt" height="174pt"
 viewBox="0.00 0.00 952.00 173.80" xmlns="http://www.w3.org/2000/svg" xmlns:xlink="http://www.w3.org/1999/xlink">
<g id="graph0" class="graph" transform="scale(1 1) rotate(0) translate(4 169.8)">
<title>dependencies</title>
<polygon fill="white" stroke="transparent" points="-4,4 -4,-169.8 948,-169.8 948,4 -4,4"/>
<text text-anchor="middle" x="472" y="-8.2" font-family="sans-serif" font-size="14.00">dependencies</text>
<g id="clust1" class="cluster">
<title>cluster_AdminModule</title>
<polygon fill="none" stroke="black" stroke-dasharray="1,5" points="8,-32.8 8,-157.8 936,-157.8 936,-32.8 8,-32.8"/>
</g>
<g id="clust2" class="cluster">
<title>cluster_AdminModule_declarations</title>
<polygon fill="none" stroke="black" points="148,-40.8 148,-92.8 928,-92.8 928,-40.8 148,-40.8"/>
</g>
<g id="clust11" class="cluster">
<title>cluster_AdminModule_providers</title>
<polygon fill="none" stroke="black" points="16,-40.8 16,-92.8 140,-92.8 140,-40.8 16,-40.8"/>
</g>
<!-- AdminComponent -->
<g id="node1" class="node">
<title>AdminComponent</title>
<polygon fill="#ffffb3" stroke="black" points="920.22,-84.8 799.78,-84.8 799.78,-48.8 920.22,-48.8 920.22,-84.8"/>
<text text-anchor="middle" x="860" y="-62.6" font-family="Times,serif" font-size="14.00">AdminComponent</text>
</g>
<!-- AdminModule -->
<g id="node6" class="node">
<title>AdminModule</title>
<polygon fill="#8dd3c7" stroke="black" points="544.44,-149.8 541.44,-153.8 520.44,-153.8 517.44,-149.8 445.56,-149.8 445.56,-113.8 544.44,-113.8 544.44,-149.8"/>
<text text-anchor="middle" x="495" y="-127.6" font-family="Times,serif" font-size="14.00">AdminModule</text>
</g>
<!-- AdminComponent&#45;&gt;AdminModule -->
<g id="edge1" class="edge">
<title>AdminComponent&#45;&gt;AdminModule</title>
<path fill="none" stroke="black" d="M860,-85.08C860,-106.12 860,-137.8 860,-137.8 860,-137.8 554.23,-137.8 554.23,-137.8"/>
<polygon fill="black" stroke="black" points="554.23,-134.3 544.23,-137.8 554.23,-141.3 554.23,-134.3"/>
</g>
<!-- AuthComponent -->
<g id="node2" class="node">
<title>AuthComponent</title>
<polygon fill="#ffffb3" stroke="black" points="781.83,-84.8 672.17,-84.8 672.17,-48.8 781.83,-48.8 781.83,-84.8"/>
<text text-anchor="middle" x="727" y="-62.6" font-family="Times,serif" font-size="14.00">AuthComponent</text>
</g>
<!-- AuthComponent&#45;&gt;AdminModule -->
<g id="edge2" class="edge">
<title>AuthComponent&#45;&gt;AdminModule</title>
<path fill="none" stroke="black" d="M727,-84.82C727,-102.17 727,-125.8 727,-125.8 727,-125.8 554.49,-125.8 554.49,-125.8"/>
<polygon fill="black" stroke="black" points="554.49,-122.3 544.49,-125.8 554.49,-129.3 554.49,-122.3"/>
</g>
<!-- OrderTableComponent -->
<g id="node3" class="node">
<title>OrderTableComponent</title>
<polygon fill="#ffffb3" stroke="black" points="653.85,-84.8 508.15,-84.8 508.15,-48.8 653.85,-48.8 653.85,-84.8"/>
<text text-anchor="middle" x="581" y="-62.6" font-family="Times,serif" font-size="14.00">OrderTableComponent</text>
</g>
<!-- OrderTableComponent&#45;&gt;AdminModule -->
<g id="edge3" class="edge">
<title>OrderTableComponent&#45;&gt;AdminModule</title>
<path fill="none" stroke="black" d="M526.15,-84.91C526.15,-84.91 526.15,-103.79 526.15,-103.79"/>
<polygon fill="black" stroke="black" points="522.65,-103.79 526.15,-113.79 529.65,-103.79 522.65,-103.79"/>
</g>
<!-- ProductEditorComponent -->
<g id="node4" class="node">
<title>ProductEditorComponent</title>
<polygon fill="#ffffb3" stroke="black" points="489.88,-84.8 330.12,-84.8 330.12,-48.8 489.88,-48.8 489.88,-84.8"/>
<text text-anchor="middle" x="410" y="-62.6" font-family="Times,serif" font-size="14.00">ProductEditorComponent</text>
</g>
<!-- ProductEditorComponent&#45;&gt;AdminModule -->
<g id="edge4" class="edge">
<title>ProductEditorComponent&#45;&gt;AdminModule</title>
<path fill="none" stroke="black" d="M467.86,-84.91C467.86,-84.91 467.86,-103.79 467.86,-103.79"/>
<polygon fill="black" stroke="black" points="464.36,-103.79 467.86,-113.79 471.36,-103.79 464.36,-103.79"/>
</g>
<!-- ProductTableComponent -->
<g id="node5" class="node">
<title>ProductTableComponent</title>
<polygon fill="#ffffb3" stroke="black" points="312.25,-84.8 155.75,-84.8 155.75,-48.8 312.25,-48.8 312.25,-84.8"/>
<text text-anchor="middle" x="234" y="-62.6" font-family="Times,serif" font-size="14.00">ProductTableComponent</text>
</g>
<!-- ProductTableComponent&#45;&gt;AdminModule -->
<g id="edge5" class="edge">
<title>ProductTableComponent&#45;&gt;AdminModule</title>
<path fill="none" stroke="black" d="M234,-84.82C234,-102.17 234,-125.8 234,-125.8 234,-125.8 435.6,-125.8 435.6,-125.8"/>
<polygon fill="black" stroke="black" points="435.6,-129.3 445.6,-125.8 435.6,-122.3 435.6,-129.3"/>
</g>
<!-- AuthGuard -->
<g id="node7" class="node">
<title>AuthGuard</title>
<ellipse fill="#fdb462" stroke="black" cx="78" cy="-66.8" rx="54.47" ry="18"/>
<text text-anchor="middle" x="78" y="-62.6" font-family="Times,serif" font-size="14.00">AuthGuard</text>
</g>
<!-- AuthGuard&#45;&gt;AdminModule -->
<g id="edge6" class="edge">
<title>AuthGuard&#45;&gt;AdminModule</title>
<path fill="none" stroke="black" d="M78,-85.08C78,-106.12 78,-137.8 78,-137.8 78,-137.8 435.53,-137.8 435.53,-137.8"/>
<polygon fill="black" stroke="black" points="435.53,-141.3 445.53,-137.8 435.53,-134.3 435.53,-141.3"/>
</g>
</g>
</svg>
