<?xml version="1.0" encoding="UTF-8" standalone="no"?>
<!DOCTYPE svg PUBLIC "-//W3C//DTD SVG 1.1//EN"
 "http://www.w3.org/Graphics/SVG/1.1/DTD/svg11.dtd">
<!-- Generated by graphviz version 5.0.0 (20220707.1540)
 -->
<!-- Title: dependencies Pages: 1 -->
<svg width="851pt" height="174pt"
 viewBox="0.00 0.00 851.00 173.80" xmlns="http://www.w3.org/2000/svg" xmlns:xlink="http://www.w3.org/1999/xlink">
<g id="graph0" class="graph" transform="scale(1 1) rotate(0) translate(4 169.8)">
<title>dependencies</title>
<polygon fill="white" stroke="transparent" points="-4,4 -4,-169.8 847,-169.8 847,4 -4,4"/>
<text text-anchor="middle" x="421.5" y="-8.2" font-family="sans-serif" font-size="14.00">dependencies</text>
<g id="clust1" class="cluster">
<title>cluster_ProductModule</title>
<polygon fill="none" stroke="black" stroke-dasharray="1,5" points="8,-32.8 8,-157.8 835,-157.8 835,-32.8 8,-32.8"/>
</g>
<g id="clust6" class="cluster">
<title>cluster_ProductModule_providers</title>
<polygon fill="none" stroke="black" points="16,-40.8 16,-92.8 827,-92.8 827,-40.8 16,-40.8"/>
</g>
<!-- AuthService -->
<g id="node1" class="node">
<title>AuthService</title>
<ellipse fill="#fdb462" stroke="black" cx="760" cy="-66.8" rx="59.11" ry="18"/>
<text text-anchor="middle" x="760" y="-62.6" font-family="Times,serif" font-size="14.00">AuthService</text>
</g>
<!-- ProductModule -->
<g id="node7" class="node">
<title>ProductModule</title>
<polygon fill="#8dd3c7" stroke="black" points="563.6,-149.8 560.6,-153.8 539.6,-153.8 536.6,-149.8 460.4,-149.8 460.4,-113.8 563.6,-113.8 563.6,-149.8"/>
<text text-anchor="middle" x="512" y="-127.6" font-family="Times,serif" font-size="14.00">ProductModule</text>
</g>
<!-- AuthService&#45;&gt;ProductModule -->
<g id="edge1" class="edge">
<title>AuthService&#45;&gt;ProductModule</title>
<path fill="none" stroke="black" d="M760,-85.08C760,-106.12 760,-137.8 760,-137.8 760,-137.8 573.69,-137.8 573.69,-137.8"/>
<polygon fill="black" stroke="black" points="573.69,-134.3 563.69,-137.8 573.69,-141.3 573.69,-134.3"/>
</g>
<!-- Cart -->
<g id="node2" class="node">
<title>Cart</title>
<ellipse fill="#fdb462" stroke="black" cx="655" cy="-66.8" rx="27.83" ry="18"/>
<text text-anchor="middle" x="655" y="-62.6" font-family="Times,serif" font-size="14.00">Cart</text>
</g>
<!-- Cart&#45;&gt;ProductModule -->
<g id="edge2" class="edge">
<title>Cart&#45;&gt;ProductModule</title>
<path fill="none" stroke="black" d="M655,-84.82C655,-102.17 655,-125.8 655,-125.8 655,-125.8 573.63,-125.8 573.63,-125.8"/>
<polygon fill="black" stroke="black" points="573.63,-122.3 563.63,-125.8 573.63,-129.3 573.63,-122.3"/>
</g>
<!-- Order -->
<g id="node3" class="node">
<title>Order</title>
<ellipse fill="#fdb462" stroke="black" cx="576" cy="-66.8" rx="33.61" ry="18"/>
<text text-anchor="middle" x="576" y="-62.6" font-family="Times,serif" font-size="14.00">Order</text>
</g>
<!-- Order&#45;&gt;ProductModule -->
<g id="edge3" class="edge">
<title>Order&#45;&gt;ProductModule</title>
<path fill="none" stroke="black" d="M553,-79.95C553,-79.95 553,-103.49 553,-103.49"/>
<polygon fill="black" stroke="black" points="549.5,-103.49 553,-113.49 556.5,-103.49 549.5,-103.49"/>
</g>
<!-- OrderRepository -->
<g id="node4" class="node">
<title>OrderRepository</title>
<ellipse fill="#fdb462" stroke="black" cx="449" cy="-66.8" rx="75.88" ry="18"/>
<text text-anchor="middle" x="449" y="-62.6" font-family="Times,serif" font-size="14.00">OrderRepository</text>
</g>
<!-- OrderRepository&#45;&gt;ProductModule -->
<g id="edge4" class="edge">
<title>OrderRepository&#45;&gt;ProductModule</title>
<path fill="none" stroke="black" d="M492.69,-81.55C492.69,-81.55 492.69,-103.39 492.69,-103.39"/>
<polygon fill="black" stroke="black" points="489.19,-103.39 492.69,-113.39 496.19,-103.39 489.19,-103.39"/>
</g>
<!-- ProductRepository -->
<g id="node5" class="node">
<title>ProductRepository</title>
<ellipse fill="#fdb462" stroke="black" cx="272" cy="-66.8" rx="83.42" ry="18"/>
<text text-anchor="middle" x="272" y="-62.6" font-family="Times,serif" font-size="14.00">ProductRepository</text>
</g>
<!-- ProductRepository&#45;&gt;ProductModule -->
<g id="edge5" class="edge">
<title>ProductRepository&#45;&gt;ProductModule</title>
<path fill="none" stroke="black" d="M272,-84.82C272,-102.17 272,-125.8 272,-125.8 272,-125.8 450.22,-125.8 450.22,-125.8"/>
<polygon fill="black" stroke="black" points="450.22,-129.3 460.22,-125.8 450.22,-122.3 450.22,-129.3"/>
</g>
<!-- RestDataSource -->
<g id="node6" class="node">
<title>RestDataSource</title>
<ellipse fill="#fdb462" stroke="black" cx="97" cy="-66.8" rx="73" ry="18"/>
<text text-anchor="middle" x="97" y="-62.6" font-family="Times,serif" font-size="14.00">RestDataSource</text>
</g>
<!-- RestDataSource&#45;&gt;ProductModule -->
<g id="edge6" class="edge">
<title>RestDataSource&#45;&gt;ProductModule</title>
<path fill="none" stroke="black" d="M97,-85.08C97,-106.12 97,-137.8 97,-137.8 97,-137.8 450.28,-137.8 450.28,-137.8"/>
<polygon fill="black" stroke="black" points="450.28,-141.3 460.28,-137.8 450.28,-134.3 450.28,-141.3"/>
</g>
</g>
</svg>
