<?xml version="1.0" encoding="UTF-8" standalone="no"?>
<!DOCTYPE svg PUBLIC "-//W3C//DTD SVG 1.1//EN"
 "http://www.w3.org/Graphics/SVG/1.1/DTD/svg11.dtd">
<!-- Generated by graphviz version 5.0.0 (20220707.1540)
 -->
<!-- Title: dependencies Pages: 1 -->
<svg width="914pt" height="247pt"
 viewBox="0.00 0.00 914.00 246.80" xmlns="http://www.w3.org/2000/svg" xmlns:xlink="http://www.w3.org/1999/xlink">
<g id="graph0" class="graph" transform="scale(1 1) rotate(0) translate(4 242.8)">
<title>dependencies</title>
<polygon fill="white" stroke="transparent" points="-4,4 -4,-242.8 910,-242.8 910,4 -4,4"/>
<text text-anchor="middle" x="453" y="-8.2" font-family="sans-serif" font-size="14.00">dependencies</text>
<g id="clust1" class="cluster">
<title>cluster_StoreModule</title>
<polygon fill="none" stroke="black" stroke-dasharray="1,5" points="8,-32.8 8,-230.8 898,-230.8 898,-32.8 8,-32.8"/>
</g>
<g id="clust9" class="cluster">
<title>cluster_StoreModule_exports</title>
<polygon fill="none" stroke="black" points="128,-170.8 128,-222.8 576,-222.8 576,-170.8 128,-170.8"/>
</g>
<g id="clust2" class="cluster">
<title>cluster_StoreModule_declarations</title>
<polygon fill="none" stroke="black" points="144,-40.8 144,-92.8 890,-92.8 890,-40.8 144,-40.8"/>
</g>
<g id="clust8" class="cluster">
<title>cluster_StoreModule_imports</title>
<polygon fill="none" stroke="black" points="16,-40.8 16,-92.8 136,-92.8 136,-40.8 16,-40.8"/>
</g>
<!-- CartDetailComponent -->
<g id="node1" class="node">
<title>CartDetailComponent</title>
<polygon fill="#ffffb3" stroke="black" points="881.64,-84.8 742.36,-84.8 742.36,-48.8 881.64,-48.8 881.64,-84.8"/>
<text text-anchor="middle" x="812" y="-62.6" font-family="Times,serif" font-size="14.00">CartDetailComponent</text>
</g>
<!-- StoreModule -->
<g id="node6" class="node">
<title>StoreModule</title>
<polygon fill="#8dd3c7" stroke="black" points="381.6,-149.8 378.6,-153.8 357.6,-153.8 354.6,-149.8 292.4,-149.8 292.4,-113.8 381.6,-113.8 381.6,-149.8"/>
<text text-anchor="middle" x="337" y="-127.6" font-family="Times,serif" font-size="14.00">StoreModule</text>
</g>
<!-- CartDetailComponent&#45;&gt;StoreModule -->
<g id="edge1" class="edge">
<title>CartDetailComponent&#45;&gt;StoreModule</title>
<path fill="none" stroke="black" d="M812,-84.93C812,-105.37 812,-135.8 812,-135.8 812,-135.8 391.69,-135.8 391.69,-135.8"/>
<polygon fill="black" stroke="black" points="391.69,-132.3 381.69,-135.8 391.69,-139.3 391.69,-132.3"/>
</g>
<!-- CartSummaryComponent -->
<g id="node2" class="node">
<title>CartSummaryComponent</title>
<polygon fill="#ffffb3" stroke="black" points="723.88,-84.8 564.12,-84.8 564.12,-48.8 723.88,-48.8 723.88,-84.8"/>
<text text-anchor="middle" x="644" y="-62.6" font-family="Times,serif" font-size="14.00">CartSummaryComponent</text>
</g>
<!-- CartSummaryComponent&#45;&gt;StoreModule -->
<g id="edge2" class="edge">
<title>CartSummaryComponent&#45;&gt;StoreModule</title>
<path fill="none" stroke="black" d="M645.75,-85.07C645.75,-103.36 645.75,-128.8 645.75,-128.8 645.75,-128.8 391.57,-128.8 391.57,-128.8"/>
<polygon fill="black" stroke="black" points="391.57,-125.3 381.57,-128.8 391.57,-132.3 391.57,-125.3"/>
</g>
<!-- CheckoutComponent -->
<g id="node3" class="node">
<title>CheckoutComponent</title>
<polygon fill="#ffffb3" stroke="black" points="546.49,-84.8 411.51,-84.8 411.51,-48.8 546.49,-48.8 546.49,-84.8"/>
<text text-anchor="middle" x="479" y="-62.6" font-family="Times,serif" font-size="14.00">CheckoutComponent</text>
</g>
<!-- CheckoutComponent&#45;&gt;StoreModule -->
<g id="edge3" class="edge">
<title>CheckoutComponent&#45;&gt;StoreModule</title>
<path fill="none" stroke="black" d="M417.97,-84.81C417.97,-100.85 417.97,-121.8 417.97,-121.8 417.97,-121.8 391.75,-121.8 391.75,-121.8"/>
<polygon fill="black" stroke="black" points="391.75,-118.3 381.75,-121.8 391.75,-125.3 391.75,-118.3"/>
</g>
<!-- CounterDirective -->
<g id="node4" class="node">
<title>CounterDirective</title>
<polygon fill="#ffffb3" stroke="black" points="393.69,-84.8 280.31,-84.8 280.31,-48.8 393.69,-48.8 393.69,-84.8"/>
<text text-anchor="middle" x="337" y="-62.6" font-family="Times,serif" font-size="14.00">CounterDirective</text>
</g>
<!-- CounterDirective&#45;&gt;StoreModule -->
<g id="edge4" class="edge">
<title>CounterDirective&#45;&gt;StoreModule</title>
<path fill="none" stroke="black" d="M337,-84.91C337,-84.91 337,-103.79 337,-103.79"/>
<polygon fill="black" stroke="black" points="333.5,-103.79 337,-113.79 340.5,-103.79 333.5,-103.79"/>
</g>
<!-- StoreComponent -->
<g id="node5" class="node">
<title>StoreComponent</title>
<polygon fill="#ffffb3" stroke="black" points="262.38,-84.8 151.62,-84.8 151.62,-48.8 262.38,-48.8 262.38,-84.8"/>
<text text-anchor="middle" x="207" y="-62.6" font-family="Times,serif" font-size="14.00">StoreComponent</text>
</g>
<!-- StoreComponent&#45;&gt;StoreModule -->
<g id="edge5" class="edge">
<title>StoreComponent&#45;&gt;StoreModule</title>
<path fill="none" stroke="black" d="M256.32,-84.81C256.32,-100.85 256.32,-121.8 256.32,-121.8 256.32,-121.8 282.41,-121.8 282.41,-121.8"/>
<polygon fill="black" stroke="black" points="282.41,-125.3 292.41,-121.8 282.41,-118.3 282.41,-125.3"/>
</g>
<!-- CartDetailComponent  -->
<g id="node8" class="node">
<title>CartDetailComponent </title>
<polygon fill="#fb8072" stroke="black" points="567.64,-214.8 424.36,-214.8 424.36,-178.8 567.64,-178.8 567.64,-214.8"/>
<text text-anchor="middle" x="496" y="-192.6" font-family="Times,serif" font-size="14.00">CartDetailComponent </text>
</g>
<!-- StoreModule&#45;&gt;CartDetailComponent  -->
<g id="edge8" class="edge">
<title>StoreModule&#45;&gt;CartDetailComponent </title>
<path fill="none" stroke="black" stroke-dasharray="5,2" d="M381.95,-142.8C425.64,-142.8 485.46,-142.8 485.46,-142.8 485.46,-142.8 485.46,-168.52 485.46,-168.52"/>
<polygon fill="black" stroke="black" points="481.96,-168.52 485.46,-178.52 488.96,-168.52 481.96,-168.52"/>
</g>
<!-- CheckoutComponent  -->
<g id="node9" class="node">
<title>CheckoutComponent </title>
<polygon fill="#fb8072" stroke="black" points="406.49,-214.8 267.51,-214.8 267.51,-178.8 406.49,-178.8 406.49,-214.8"/>
<text text-anchor="middle" x="337" y="-192.6" font-family="Times,serif" font-size="14.00">CheckoutComponent </text>
</g>
<!-- StoreModule&#45;&gt;CheckoutComponent  -->
<g id="edge9" class="edge">
<title>StoreModule&#45;&gt;CheckoutComponent </title>
<path fill="none" stroke="black" stroke-dasharray="5,2" d="M337,-149.91C337,-149.91 337,-168.79 337,-168.79"/>
<polygon fill="black" stroke="black" points="333.5,-168.79 337,-178.79 340.5,-168.79 333.5,-168.79"/>
</g>
<!-- StoreComponent  -->
<g id="node10" class="node">
<title>StoreComponent </title>
<polygon fill="#fb8072" stroke="black" points="250.38,-214.8 135.62,-214.8 135.62,-178.8 250.38,-178.8 250.38,-214.8"/>
<text text-anchor="middle" x="193" y="-192.6" font-family="Times,serif" font-size="14.00">StoreComponent </text>
</g>
<!-- StoreModule&#45;&gt;StoreComponent  -->
<g id="edge10" class="edge">
<title>StoreModule&#45;&gt;StoreComponent </title>
<path fill="none" stroke="black" stroke-dasharray="5,2" d="M292.43,-142.8C252.73,-142.8 200.88,-142.8 200.88,-142.8 200.88,-142.8 200.88,-168.52 200.88,-168.52"/>
<polygon fill="black" stroke="black" points="197.38,-168.52 200.88,-178.52 204.38,-168.52 197.38,-168.52"/>
</g>
<!-- ProductModule -->
<g id="node7" class="node">
<title>ProductModule</title>
<polygon fill="#8dd3c7" stroke="black" points="127.6,-84.8 124.6,-88.8 103.6,-88.8 100.6,-84.8 24.4,-84.8 24.4,-48.8 127.6,-48.8 127.6,-84.8"/>
<text text-anchor="middle" x="76" y="-62.6" font-family="Times,serif" font-size="14.00">ProductModule</text>
</g>
<!-- ProductModule&#45;&gt;StoreModule -->
<g id="edge6" class="edge">
<title>ProductModule&#45;&gt;StoreModule</title>
<path fill="none" stroke="black" d="M93.18,-85.07C93.18,-103.36 93.18,-128.8 93.18,-128.8 93.18,-128.8 282.28,-128.8 282.28,-128.8"/>
<polygon fill="black" stroke="black" points="282.28,-132.3 292.28,-128.8 282.28,-125.3 282.28,-132.3"/>
</g>
<!-- ProductModule&#45;&gt;StoreModule -->
<g id="edge7" class="edge">
<title>ProductModule&#45;&gt;StoreModule</title>
<path fill="none" stroke="black" d="M58.82,-84.93C58.82,-105.37 58.82,-135.8 58.82,-135.8 58.82,-135.8 282.3,-135.8 282.3,-135.8"/>
<polygon fill="black" stroke="black" points="282.3,-139.3 292.3,-135.8 282.3,-132.3 282.3,-139.3"/>
</g>
</g>
</svg>
